<mxfile host="app.diagrams.net" agent="Mozilla/5.0 (Windows NT 10.0; Win64; x64) AppleWebKit/537.36 (KHTML, like Gecko) Chrome/131.0.0.0 Safari/537.36 Edg/131.0.0.0" version="25.0.3">
  <diagram id="C5RBs43oDa-KdzZeNtuy" name="Page-1">
    <mxGraphModel dx="1042" dy="565" grid="1" gridSize="10" guides="1" tooltips="1" connect="1" arrows="1" fold="1" page="1" pageScale="1" pageWidth="827" pageHeight="1169" math="0" shadow="0">
      <root>
        <mxCell id="WIyWlLk6GJQsqaUBKTNV-0" />
        <mxCell id="WIyWlLk6GJQsqaUBKTNV-1" parent="WIyWlLk6GJQsqaUBKTNV-0" />
        <mxCell id="k_J7LxxcechF_qQZavyY-2" style="edgeStyle=orthogonalEdgeStyle;rounded=0;orthogonalLoop=1;jettySize=auto;html=1;entryX=0.5;entryY=0;entryDx=0;entryDy=0;" edge="1" parent="WIyWlLk6GJQsqaUBKTNV-1" source="k_J7LxxcechF_qQZavyY-0" target="k_J7LxxcechF_qQZavyY-1">
          <mxGeometry relative="1" as="geometry" />
        </mxCell>
        <mxCell id="k_J7LxxcechF_qQZavyY-0" value="START" style="ellipse;whiteSpace=wrap;html=1;" vertex="1" parent="WIyWlLk6GJQsqaUBKTNV-1">
          <mxGeometry x="360" y="30" width="120" height="80" as="geometry" />
        </mxCell>
        <mxCell id="k_J7LxxcechF_qQZavyY-4" style="edgeStyle=orthogonalEdgeStyle;rounded=0;orthogonalLoop=1;jettySize=auto;html=1;entryX=0.5;entryY=0;entryDx=0;entryDy=0;" edge="1" parent="WIyWlLk6GJQsqaUBKTNV-1" source="k_J7LxxcechF_qQZavyY-1" target="k_J7LxxcechF_qQZavyY-3">
          <mxGeometry relative="1" as="geometry" />
        </mxCell>
        <mxCell id="k_J7LxxcechF_qQZavyY-1" value="int n" style="shape=parallelogram;perimeter=parallelogramPerimeter;whiteSpace=wrap;html=1;fixedSize=1;" vertex="1" parent="WIyWlLk6GJQsqaUBKTNV-1">
          <mxGeometry x="360" y="150" width="120" height="60" as="geometry" />
        </mxCell>
        <mxCell id="k_J7LxxcechF_qQZavyY-6" value="TRUE" style="edgeStyle=orthogonalEdgeStyle;rounded=0;orthogonalLoop=1;jettySize=auto;html=1;" edge="1" parent="WIyWlLk6GJQsqaUBKTNV-1" source="k_J7LxxcechF_qQZavyY-3" target="k_J7LxxcechF_qQZavyY-5">
          <mxGeometry relative="1" as="geometry" />
        </mxCell>
        <mxCell id="k_J7LxxcechF_qQZavyY-8" value="FALSE" style="edgeStyle=orthogonalEdgeStyle;rounded=0;orthogonalLoop=1;jettySize=auto;html=1;" edge="1" parent="WIyWlLk6GJQsqaUBKTNV-1" source="k_J7LxxcechF_qQZavyY-3" target="k_J7LxxcechF_qQZavyY-7">
          <mxGeometry relative="1" as="geometry" />
        </mxCell>
        <mxCell id="k_J7LxxcechF_qQZavyY-3" value="n &amp;lt; 2" style="rhombus;whiteSpace=wrap;html=1;" vertex="1" parent="WIyWlLk6GJQsqaUBKTNV-1">
          <mxGeometry x="380" y="250" width="80" height="80" as="geometry" />
        </mxCell>
        <mxCell id="k_J7LxxcechF_qQZavyY-5" value="loại 0,1" style="whiteSpace=wrap;html=1;" vertex="1" parent="WIyWlLk6GJQsqaUBKTNV-1">
          <mxGeometry x="550" y="260" width="120" height="60" as="geometry" />
        </mxCell>
        <mxCell id="k_J7LxxcechF_qQZavyY-10" value="" style="edgeStyle=orthogonalEdgeStyle;rounded=0;orthogonalLoop=1;jettySize=auto;html=1;" edge="1" parent="WIyWlLk6GJQsqaUBKTNV-1" source="k_J7LxxcechF_qQZavyY-7" target="k_J7LxxcechF_qQZavyY-9">
          <mxGeometry relative="1" as="geometry" />
        </mxCell>
        <mxCell id="k_J7LxxcechF_qQZavyY-7" value="int i = 2" style="whiteSpace=wrap;html=1;" vertex="1" parent="WIyWlLk6GJQsqaUBKTNV-1">
          <mxGeometry x="140" y="260" width="120" height="60" as="geometry" />
        </mxCell>
        <mxCell id="k_J7LxxcechF_qQZavyY-12" value="" style="edgeStyle=orthogonalEdgeStyle;rounded=0;orthogonalLoop=1;jettySize=auto;html=1;" edge="1" parent="WIyWlLk6GJQsqaUBKTNV-1" source="k_J7LxxcechF_qQZavyY-9" target="k_J7LxxcechF_qQZavyY-11">
          <mxGeometry relative="1" as="geometry" />
        </mxCell>
        <mxCell id="k_J7LxxcechF_qQZavyY-9" value="i &amp;lt;= căn n" style="rhombus;whiteSpace=wrap;html=1;" vertex="1" parent="WIyWlLk6GJQsqaUBKTNV-1">
          <mxGeometry x="160" y="390" width="80" height="80" as="geometry" />
        </mxCell>
        <mxCell id="k_J7LxxcechF_qQZavyY-17" value="TRUE" style="edgeStyle=orthogonalEdgeStyle;rounded=0;orthogonalLoop=1;jettySize=auto;html=1;" edge="1" parent="WIyWlLk6GJQsqaUBKTNV-1" source="k_J7LxxcechF_qQZavyY-11" target="k_J7LxxcechF_qQZavyY-16">
          <mxGeometry relative="1" as="geometry" />
        </mxCell>
        <mxCell id="k_J7LxxcechF_qQZavyY-20" value="fALSE" style="edgeStyle=orthogonalEdgeStyle;rounded=0;orthogonalLoop=1;jettySize=auto;html=1;" edge="1" parent="WIyWlLk6GJQsqaUBKTNV-1" source="k_J7LxxcechF_qQZavyY-11" target="k_J7LxxcechF_qQZavyY-19">
          <mxGeometry relative="1" as="geometry">
            <Array as="points">
              <mxPoint x="360" y="570" />
            </Array>
          </mxGeometry>
        </mxCell>
        <mxCell id="k_J7LxxcechF_qQZavyY-11" value="n % i == 0" style="rhombus;whiteSpace=wrap;html=1;" vertex="1" parent="WIyWlLk6GJQsqaUBKTNV-1">
          <mxGeometry x="160" y="530" width="80" height="80" as="geometry" />
        </mxCell>
        <mxCell id="k_J7LxxcechF_qQZavyY-24" style="edgeStyle=orthogonalEdgeStyle;rounded=0;orthogonalLoop=1;jettySize=auto;html=1;entryX=0.5;entryY=0;entryDx=0;entryDy=0;" edge="1" parent="WIyWlLk6GJQsqaUBKTNV-1" source="k_J7LxxcechF_qQZavyY-13" target="k_J7LxxcechF_qQZavyY-23">
          <mxGeometry relative="1" as="geometry" />
        </mxCell>
        <mxCell id="k_J7LxxcechF_qQZavyY-13" value="END vòng lặp" style="ellipse;whiteSpace=wrap;html=1;" vertex="1" parent="WIyWlLk6GJQsqaUBKTNV-1">
          <mxGeometry x="140" y="780" width="120" height="80" as="geometry" />
        </mxCell>
        <mxCell id="k_J7LxxcechF_qQZavyY-18" style="edgeStyle=orthogonalEdgeStyle;rounded=0;orthogonalLoop=1;jettySize=auto;html=1;" edge="1" parent="WIyWlLk6GJQsqaUBKTNV-1" source="k_J7LxxcechF_qQZavyY-16" target="k_J7LxxcechF_qQZavyY-13">
          <mxGeometry relative="1" as="geometry" />
        </mxCell>
        <mxCell id="k_J7LxxcechF_qQZavyY-22" style="edgeStyle=orthogonalEdgeStyle;rounded=0;orthogonalLoop=1;jettySize=auto;html=1;" edge="1" parent="WIyWlLk6GJQsqaUBKTNV-1" source="k_J7LxxcechF_qQZavyY-16">
          <mxGeometry relative="1" as="geometry">
            <mxPoint x="360" y="530" as="targetPoint" />
          </mxGeometry>
        </mxCell>
        <mxCell id="k_J7LxxcechF_qQZavyY-16" value="return 0" style="rounded=0;whiteSpace=wrap;html=1;" vertex="1" parent="WIyWlLk6GJQsqaUBKTNV-1">
          <mxGeometry x="140" y="670" width="120" height="60" as="geometry" />
        </mxCell>
        <mxCell id="k_J7LxxcechF_qQZavyY-21" style="edgeStyle=orthogonalEdgeStyle;rounded=0;orthogonalLoop=1;jettySize=auto;html=1;entryX=1;entryY=0.5;entryDx=0;entryDy=0;" edge="1" parent="WIyWlLk6GJQsqaUBKTNV-1" source="k_J7LxxcechF_qQZavyY-19" target="k_J7LxxcechF_qQZavyY-9">
          <mxGeometry relative="1" as="geometry">
            <Array as="points">
              <mxPoint x="360" y="430" />
            </Array>
          </mxGeometry>
        </mxCell>
        <mxCell id="k_J7LxxcechF_qQZavyY-19" value="i++" style="whiteSpace=wrap;html=1;" vertex="1" parent="WIyWlLk6GJQsqaUBKTNV-1">
          <mxGeometry x="300" y="470" width="120" height="60" as="geometry" />
        </mxCell>
        <mxCell id="k_J7LxxcechF_qQZavyY-26" value="" style="edgeStyle=orthogonalEdgeStyle;rounded=0;orthogonalLoop=1;jettySize=auto;html=1;" edge="1" parent="WIyWlLk6GJQsqaUBKTNV-1" source="k_J7LxxcechF_qQZavyY-23" target="k_J7LxxcechF_qQZavyY-25">
          <mxGeometry relative="1" as="geometry" />
        </mxCell>
        <mxCell id="k_J7LxxcechF_qQZavyY-23" value="return 1 nếu ko tìm&lt;br&gt;thấy ước" style="shape=parallelogram;perimeter=parallelogramPerimeter;whiteSpace=wrap;html=1;fixedSize=1;" vertex="1" parent="WIyWlLk6GJQsqaUBKTNV-1">
          <mxGeometry x="120" y="910" width="160" height="60" as="geometry" />
        </mxCell>
        <mxCell id="k_J7LxxcechF_qQZavyY-31" style="edgeStyle=orthogonalEdgeStyle;rounded=0;orthogonalLoop=1;jettySize=auto;html=1;entryX=0.5;entryY=1;entryDx=0;entryDy=0;" edge="1" parent="WIyWlLk6GJQsqaUBKTNV-1" source="k_J7LxxcechF_qQZavyY-25" target="k_J7LxxcechF_qQZavyY-30">
          <mxGeometry relative="1" as="geometry" />
        </mxCell>
        <mxCell id="k_J7LxxcechF_qQZavyY-25" value="n là số nguyên tố" style="whiteSpace=wrap;html=1;" vertex="1" parent="WIyWlLk6GJQsqaUBKTNV-1">
          <mxGeometry x="540" y="910" width="120" height="60" as="geometry" />
        </mxCell>
        <mxCell id="k_J7LxxcechF_qQZavyY-34" style="edgeStyle=orthogonalEdgeStyle;rounded=0;orthogonalLoop=1;jettySize=auto;html=1;entryX=0.5;entryY=1;entryDx=0;entryDy=0;" edge="1" parent="WIyWlLk6GJQsqaUBKTNV-1" source="k_J7LxxcechF_qQZavyY-30" target="k_J7LxxcechF_qQZavyY-32">
          <mxGeometry relative="1" as="geometry" />
        </mxCell>
        <mxCell id="k_J7LxxcechF_qQZavyY-30" value="Nhập n&lt;br&gt;count = 0&lt;br&gt;num = 2" style="shape=parallelogram;perimeter=parallelogramPerimeter;whiteSpace=wrap;html=1;fixedSize=1;" vertex="1" parent="WIyWlLk6GJQsqaUBKTNV-1">
          <mxGeometry x="540" y="790" width="120" height="60" as="geometry" />
        </mxCell>
        <mxCell id="k_J7LxxcechF_qQZavyY-36" style="edgeStyle=orthogonalEdgeStyle;rounded=0;orthogonalLoop=1;jettySize=auto;html=1;entryX=0.5;entryY=1;entryDx=0;entryDy=0;" edge="1" parent="WIyWlLk6GJQsqaUBKTNV-1" source="k_J7LxxcechF_qQZavyY-32" target="k_J7LxxcechF_qQZavyY-35">
          <mxGeometry relative="1" as="geometry" />
        </mxCell>
        <mxCell id="k_J7LxxcechF_qQZavyY-32" value="count &amp;lt; n" style="rhombus;whiteSpace=wrap;html=1;" vertex="1" parent="WIyWlLk6GJQsqaUBKTNV-1">
          <mxGeometry x="560" y="660" width="80" height="80" as="geometry" />
        </mxCell>
        <mxCell id="k_J7LxxcechF_qQZavyY-38" value="TRUE" style="edgeStyle=orthogonalEdgeStyle;rounded=0;orthogonalLoop=1;jettySize=auto;html=1;" edge="1" parent="WIyWlLk6GJQsqaUBKTNV-1" source="k_J7LxxcechF_qQZavyY-35" target="k_J7LxxcechF_qQZavyY-37">
          <mxGeometry relative="1" as="geometry" />
        </mxCell>
        <mxCell id="k_J7LxxcechF_qQZavyY-40" value="FALSE" style="edgeStyle=orthogonalEdgeStyle;rounded=0;orthogonalLoop=1;jettySize=auto;html=1;" edge="1" parent="WIyWlLk6GJQsqaUBKTNV-1" source="k_J7LxxcechF_qQZavyY-35" target="k_J7LxxcechF_qQZavyY-39">
          <mxGeometry relative="1" as="geometry" />
        </mxCell>
        <mxCell id="k_J7LxxcechF_qQZavyY-35" value="prime(num))== 1" style="rhombus;whiteSpace=wrap;html=1;" vertex="1" parent="WIyWlLk6GJQsqaUBKTNV-1">
          <mxGeometry x="540" y="545" width="120" height="80" as="geometry" />
        </mxCell>
        <mxCell id="k_J7LxxcechF_qQZavyY-41" style="edgeStyle=orthogonalEdgeStyle;rounded=0;orthogonalLoop=1;jettySize=auto;html=1;entryX=0;entryY=0.5;entryDx=0;entryDy=0;" edge="1" parent="WIyWlLk6GJQsqaUBKTNV-1" source="k_J7LxxcechF_qQZavyY-37" target="k_J7LxxcechF_qQZavyY-32">
          <mxGeometry relative="1" as="geometry">
            <Array as="points">
              <mxPoint x="470" y="470" />
              <mxPoint x="470" y="700" />
            </Array>
          </mxGeometry>
        </mxCell>
        <mxCell id="k_J7LxxcechF_qQZavyY-44" style="edgeStyle=orthogonalEdgeStyle;rounded=0;orthogonalLoop=1;jettySize=auto;html=1;entryX=0.5;entryY=1;entryDx=0;entryDy=0;" edge="1" parent="WIyWlLk6GJQsqaUBKTNV-1" source="k_J7LxxcechF_qQZavyY-37" target="k_J7LxxcechF_qQZavyY-43">
          <mxGeometry relative="1" as="geometry" />
        </mxCell>
        <mxCell id="k_J7LxxcechF_qQZavyY-37" value="in ra num(số nguyên tố)&lt;br&gt;tăng giá trị count" style="rounded=0;whiteSpace=wrap;html=1;" vertex="1" parent="WIyWlLk6GJQsqaUBKTNV-1">
          <mxGeometry x="540" y="440" width="120" height="60" as="geometry" />
        </mxCell>
        <mxCell id="k_J7LxxcechF_qQZavyY-42" style="edgeStyle=orthogonalEdgeStyle;rounded=0;orthogonalLoop=1;jettySize=auto;html=1;entryX=1;entryY=0.5;entryDx=0;entryDy=0;" edge="1" parent="WIyWlLk6GJQsqaUBKTNV-1" source="k_J7LxxcechF_qQZavyY-39" target="k_J7LxxcechF_qQZavyY-32">
          <mxGeometry relative="1" as="geometry">
            <mxPoint x="780" y="710" as="targetPoint" />
            <Array as="points">
              <mxPoint x="780" y="700" />
            </Array>
          </mxGeometry>
        </mxCell>
        <mxCell id="k_J7LxxcechF_qQZavyY-39" value="tăng giá trị num" style="whiteSpace=wrap;html=1;" vertex="1" parent="WIyWlLk6GJQsqaUBKTNV-1">
          <mxGeometry x="720" y="555" width="120" height="60" as="geometry" />
        </mxCell>
        <mxCell id="k_J7LxxcechF_qQZavyY-43" value="END" style="ellipse;whiteSpace=wrap;html=1;" vertex="1" parent="WIyWlLk6GJQsqaUBKTNV-1">
          <mxGeometry x="540" y="340" width="120" height="80" as="geometry" />
        </mxCell>
      </root>
    </mxGraphModel>
  </diagram>
</mxfile>
